<svg width="60" height="60" viewBox="0 0 60 60" fill="none" xmlns="http://www.w3.org/2000/svg">
<g clip-path="url(#clip0_2_88)">
<path d="M0 17.6C0 11.4394 0 8.35913 1.19893 6.0061C2.25354 3.93632 3.93632 2.25354 6.0061 1.19893C8.35913 0 11.4394 0 17.6 0H60V42.4C60 48.5606 60 51.6409 58.8011 53.9939C57.7465 56.0637 56.0637 57.7465 53.9939 58.8011C51.6409 60 48.5606 60 42.4 60H0V17.6Z" fill="#020202"/>
<rect width="6.78889" height="36.2551" transform="matrix(0.940598 0.339524 -0.292681 0.95621 6.61121 35)" fill="white"/>
<path d="M9.20749 27.1723L10.8039 27.7486L12.4003 28.3248L8.14639 30.6391L8.67693 28.9057L9.20749 27.1723Z" fill="#020202"/>
<path d="M6.53699 35L8.13339 35.5762L9.19766 35.9604L8.49025 38.2716L7.07542 42.8939L5.6606 47.5163L3.53206 46.7479L2.99992 46.5558L5.82957 37.3112L6.53699 35Z" fill="#111010"/>
<rect width="6.78889" height="41.455" transform="matrix(0.940598 0.339524 -0.292681 0.95621 20.9508 25.1039)" fill="white"/>
<path d="M20.9508 25.1038L22.5472 25.6801L24.1436 26.2563L19.7375 29.0678L20.3441 27.0858L20.9508 25.1038Z" fill="#020202"/>
<path d="M19.1307 31.0499L20.7271 31.6261L21.7914 32.0103L20.9825 34.653L19.3648 39.9383L17.747 45.2236L15.6185 44.4552L15.0864 44.2631L18.3219 33.6925L19.1307 31.0499Z" fill="#111010"/>
<rect width="6.78889" height="50.467" transform="matrix(0.940598 0.339524 -0.292681 0.95621 33.8171 20.867)" fill="white"/>
<path d="M33.8172 20.867L35.4136 21.4432L37.01 22.0195L32.3401 25.6927L33.0786 23.2798L33.8172 20.867Z" fill="#020202"/>
<path d="M31.6016 28.1057L33.198 28.6819L34.2622 29.0661L33.2775 32.2832L31.3081 38.7175L29.3387 45.1518L27.2101 44.3835L26.678 44.1914L30.6168 31.3228L31.6016 28.1057Z" fill="#111010"/>
<rect width="6.78889" height="64.5614" transform="matrix(0.940598 0.339524 -0.292681 0.95621 48.6416 11.6628)" fill="white"/>
<path d="M48.6417 11.6628L50.2381 12.2391L51.8345 12.8153L46.7521 17.8362L47.6969 14.7495L48.6417 11.6628Z" fill="#020202"/>
<path d="M45.8071 20.9231L47.4035 21.4993L48.4678 21.8835L47.2081 25.9991L44.6886 34.2304L42.1692 42.4616L40.0406 41.6933L39.5085 41.5012L44.5474 25.0387L45.8071 20.9231Z" fill="#111010"/>
</g>
<defs>
<clipPath id="clip0_2_88">
<path d="M0 17.6C0 11.4394 0 8.35913 1.19893 6.0061C2.25354 3.93632 3.93632 2.25354 6.0061 1.19893C8.35913 0 11.4394 0 17.6 0H60V42.4C60 48.5606 60 51.6409 58.8011 53.9939C57.7465 56.0637 56.0637 57.7465 53.9939 58.8011C51.6409 60 48.5606 60 42.4 60H0V17.6Z" fill="white"/>
</clipPath>
</defs>
</svg>
