<svg width="252" height="60" viewBox="0 0 252 60" fill="none" xmlns="http://www.w3.org/2000/svg">
<g clip-path="url(#clip0_2_61)">
<path d="M0 17.6C0 11.4394 0 8.35913 1.19893 6.0061C2.25354 3.93632 3.93632 2.25354 6.0061 1.19893C8.35913 0 11.4394 0 17.6 0H60V42.4C60 48.5606 60 51.6409 58.8011 53.9939C57.7465 56.0637 56.0637 57.7465 53.9939 58.8011C51.6409 60 48.5606 60 42.4 60H0V17.6Z" fill="#020202"/>
<rect width="6.78889" height="36.2551" transform="matrix(0.940598 0.339524 -0.292681 0.95621 6.61121 35)" fill="white"/>
<path d="M9.20749 27.1724L10.8039 27.7486L12.4003 28.3249L8.14639 30.6391L8.67693 28.9057L9.20749 27.1724Z" fill="#020202"/>
<path d="M6.53705 35L8.13345 35.5762L9.19772 35.9604L8.49031 38.2716L7.07548 42.8939L5.66066 47.5163L3.53212 46.7479L2.99999 46.5558L5.82964 37.3112L6.53705 35Z" fill="#111010"/>
<rect width="6.78889" height="41.455" transform="matrix(0.940598 0.339524 -0.292681 0.95621 20.9508 25.1039)" fill="white"/>
<path d="M20.9508 25.1039L22.5472 25.6801L24.1437 26.2564L19.7375 29.0678L20.3442 27.0858L20.9508 25.1039Z" fill="#020202"/>
<path d="M19.1308 31.0499L20.7272 31.6262L21.7915 32.0103L20.9826 34.653L19.3648 39.9383L17.7471 45.2236L15.6186 44.4552L15.0864 44.2632L18.3219 33.6926L19.1308 31.0499Z" fill="#111010"/>
<rect width="6.78889" height="50.467" transform="matrix(0.940598 0.339524 -0.292681 0.95621 33.8171 20.867)" fill="white"/>
<path d="M33.8172 20.867L35.4137 21.4433L37.0101 22.0195L32.3402 25.6927L33.0787 23.2799L33.8172 20.867Z" fill="#020202"/>
<path d="M31.6016 28.1057L33.198 28.6819L34.2622 29.0661L33.2775 32.2832L31.3081 38.7175L29.3387 45.1518L27.2101 44.3835L26.678 44.1914L30.6168 31.3228L31.6016 28.1057Z" fill="#111010"/>
<rect width="6.78889" height="64.5614" transform="matrix(0.940598 0.339524 -0.292681 0.95621 48.6416 11.6628)" fill="white"/>
<path d="M48.6416 11.6628L50.238 12.2391L51.8345 12.8153L46.752 17.8362L47.6968 14.7495L48.6416 11.6628Z" fill="#020202"/>
<path d="M45.8071 20.9231L47.4035 21.4993L48.4678 21.8835L47.2081 25.9991L44.6886 34.2303L42.1692 42.4616L40.0406 41.6933L39.5085 41.5012L44.5474 25.0387L45.8071 20.9231Z" fill="#111010"/>
</g>
<path d="M76.1016 18.1992H67.957V27.6914H75.6133V30.4453H67.957V41.2266H76.1016V44H64.9297V15.4453H76.1016V18.1992ZM97.5469 44H93.7578L83.6211 20.0156H83.4258C83.6341 21.6823 83.7383 23.388 83.7383 25.1328V44H80.8672V15.4453H84.6758L94.7539 39.1562H94.8906C94.7474 37.1901 94.6758 35.4583 94.6758 33.9609V15.4453H97.5469V44ZM115.086 18.2188H109.48V44H106.453V18.2188H100.828V15.4453H115.086V18.2188ZM118.406 15.4453H123.309C126.134 15.4453 128.211 16.1094 129.539 17.4375C130.88 18.7656 131.551 20.7904 131.551 23.5117C131.551 25.4648 131.206 27.0729 130.516 28.3359C129.839 29.599 128.758 30.556 127.273 31.207L132.879 44H129.559L124.5 31.9688H121.434V44H118.406V15.4453ZM121.434 18.2188V29.293H123.68C125.255 29.293 126.447 28.8177 127.254 27.8672C128.061 26.9167 128.465 25.4974 128.465 23.6094C128.465 21.7083 128.055 20.3346 127.234 19.4883C126.414 18.6419 125.105 18.2188 123.309 18.2188H121.434ZM147.586 18.1992H139.441V27.6914H147.098V30.4453H139.441V41.2266H147.586V44H136.414V15.4453H147.586V18.1992ZM169.07 44.3906C166.193 44.3906 163.914 43.1146 162.234 40.5625C160.568 37.9974 159.734 34.4297 159.734 29.8594C159.734 25.276 160.555 21.6562 162.195 19C163.849 16.3438 166.16 15.0156 169.129 15.0156C170.952 15.0156 172.638 15.4974 174.188 16.4609L173.016 19.0195C171.779 18.1992 170.503 17.7891 169.188 17.7891C167.221 17.7891 165.672 18.8568 164.539 20.9922C163.419 23.1146 162.859 26.0312 162.859 29.7422C162.859 33.4401 163.432 36.3503 164.578 38.4727C165.724 40.582 167.306 41.6367 169.324 41.6367C170.848 41.6367 172.247 41.2982 173.523 40.6211V43.3555C172.378 44.0456 170.893 44.3906 169.07 44.3906ZM181.297 44H178.367V15.4453H181.297V44ZM198.68 18.1992H190.535V28.9219H198.211V31.6758H190.535V44H187.508V15.4453H198.68V18.1992ZM202.469 15.4453H207.371C210.197 15.4453 212.273 16.1094 213.602 17.4375C214.943 18.7656 215.613 20.7904 215.613 23.5117C215.613 25.4648 215.268 27.0729 214.578 28.3359C213.901 29.599 212.82 30.556 211.336 31.207L216.941 44H213.621L208.562 31.9688H205.496V44H202.469V15.4453ZM205.496 18.2188V29.293H207.742C209.318 29.293 210.509 28.8177 211.316 27.8672C212.124 26.9167 212.527 25.4974 212.527 23.6094C212.527 21.7083 212.117 20.3346 211.297 19.4883C210.477 18.6419 209.168 18.2188 207.371 18.2188H205.496ZM224.48 15.4258H228.172C228.966 18.6419 231.316 28.1667 235.223 44H232.156L229.93 34.7031H222.82L220.633 44H217.547C221.375 28.2188 223.686 18.694 224.48 15.4258ZM227.527 24.3125L226.902 21.5195C226.655 20.4128 226.46 19.2995 226.316 18.1797C226.108 19.8073 225.854 21.2786 225.555 22.5938C225.268 23.9089 225.053 24.8854 224.91 25.5234C224.767 26.1484 224.52 27.2031 224.168 28.6875C223.816 30.1719 223.569 31.2266 223.426 31.8516H229.305L227.527 24.3125ZM242.41 41.6367C243.712 41.6367 244.76 41.168 245.555 40.2305C246.362 39.293 246.766 38.1536 246.766 36.8125C246.766 35.4583 246.408 34.332 245.691 33.4336C244.975 32.5221 243.966 31.6693 242.664 30.875C240.594 29.7161 239.135 28.5378 238.289 27.3398C237.456 26.1419 237.039 24.4883 237.039 22.3789C237.039 20.2695 237.684 18.5182 238.973 17.125C240.275 15.7318 241.954 15.0352 244.012 15.0352C246.069 15.0352 247.898 15.5039 249.5 16.4414C249.253 17.0273 248.895 17.9062 248.426 19.0781C246.915 18.2708 245.516 17.8672 244.227 17.8672C242.951 17.8672 241.928 18.2969 241.16 19.1562C240.405 20.0026 240.027 21.1029 240.027 22.457C240.027 23.8112 240.307 24.8919 240.867 25.6992C241.427 26.4935 242.605 27.3919 244.402 28.3945C246.303 29.4232 247.677 30.569 248.523 31.832C249.37 33.0951 249.793 34.6185 249.793 36.4023C249.793 38.8372 249.129 40.7773 247.801 42.2227C246.486 43.668 244.708 44.3906 242.469 44.3906C240.229 44.3906 238.341 44.013 236.805 43.2578V40.1328C237.586 40.5885 238.484 40.9531 239.5 41.2266C240.516 41.5 241.486 41.6367 242.41 41.6367Z" fill="white"/>
<defs>
<clipPath id="clip0_2_61">
<path d="M0 17.6C0 11.4394 0 8.35913 1.19893 6.0061C2.25354 3.93632 3.93632 2.25354 6.0061 1.19893C8.35913 0 11.4394 0 17.6 0H60V42.4C60 48.5606 60 51.6409 58.8011 53.9939C57.7465 56.0637 56.0637 57.7465 53.9939 58.8011C51.6409 60 48.5606 60 42.4 60H0V17.6Z" fill="white"/>
</clipPath>
</defs>
</svg>
